<svg xmlns="http://www.w3.org/2000/svg" xml:space="preserve" viewBox="0 0 640 640">
  <path d="M415.2664 199.2483c-8.3116 9.7914-16.3159 19.3837-24.5297 28.7931-2.6763 3.0658-2.9143 5.9074-1.3858 9.576 6.0888 14.6139 10.5073 29.7997 14.9527 44.969.9012 3.0753 1.0492 6.249.8465 9.4179-.3617 5.6525-3.3178 7.5111-8.7355 6.1177-3.9463-1.015-6.4709-3.944-9.5855-6.094-1.6377-1.1305-3.2477-2.8273-5.0497-3.1054-9.3264-1.4395-17.6945-5.6794-26.5122-8.5825-.4312-.1419-.9498-.0182-1.5822.3328 12.3763 6.267 25.2831 11.4524 37.6604 18.2936-1.968 1.7799-3.31.5297-4.5365.0458-11.1718-4.4074-22.7048-7.6418-34.2102-11.025-7.8077-2.296-14.4052-.2516-20.1613 4.5108-12.7027 10.5096-25.0525 21.4447-37.6128 32.128-2.3254 1.978-4.4559 4.402-7.795 5.2833-1.995-3.0188-1.4348-6.1181-1.1584-8.957 2.4263-24.914 2.3763-49.88 1.735-74.8568-.0848-3.3004.3766-5.4887 3.8707-7.021 39.2272-17.202 79.0128-32.8301 120.5465-43.649 1.7472-.455 3.478-1.103 5.3541-.7651.7997 2.2076-1.1059 3.0089-2.1111 4.5878M292.7826 284.821l-.175-1.454c-1.0666 6.9505-1.7015 13.9084-.8564 20.9205 2.7649-6.1358.9667-12.5044 1.0314-19.4665zm-51.8366-69.8793c-5.0971-5.2549-12.0793-7.524-18.0532-11.3904-1.7696-1.1453-4.0532-1.6654-5.0388-4.6759 6.67-4.0247 14.8614-3.8194 21.7154-7.3241-1.7529-1.2135-3.4314 1.288-5.3373.0962-.221-1.8439 1.3949-1.7828 2.4887-2.2369 13.2215-5.4882 26.6832-10.3943 39.5933-16.6426 3.3814-1.6366 5.4462-3.8904 6.8404-7.3652 5.1455-12.824 9.8092-25.8038 13.6728-39.0717.3086-1.0598.4697-2.29 2.266-3.1741.4485 6.261-1.1535 12.0196-2.005 17.7595-1.5605 10.5182-3.8372 20.9282-5.6067 31.4185-.4933 2.924-1.4393 5.0974-5.9028 5.8644 5.7581 1.1376 7.0416-1.4409 7.7413-4.9762 3.136-15.8444 5.5244-31.802 7.3674-47.8438.3983-3.4671.7008-6.9452 1.0555-10.4174.1516-1.4838.0858-3.2763 1.7893-3.7966 1.949-.5953 2.9846 1.2237 4.0603 2.3683 10.6124 11.2918 20.659 23.0785 30.1782 35.3007 5.7258 7.3517 11.2736 14.8493 16.6754 22.4422 1.7547 2.4665 3.7925 3.2423 6.6545 3.5227 4.6243.4532 9.2393 1.258 13.7756 2.281 4.6885 1.0574 5.4297 3.2725 3.3134 7.6995-2.2123 4.628-6.929 6.6143-10.3306 9.9798-8.2505 8.1628-18.0165 14.7815-29.418 16.6819-7.1157 1.186-14.6148 3.9878-22.1407 1.356-1.5594-.5452-3.488-.808-4.541-1.8885-3.7219-3.8192-7.6384-2.6709-11.4147-.6568-4.9491 2.6396-10.0961 5.0453-12.0977 11.194-.9213 2.8303-3.7883 2.9948-6.3557 1.685-5.388-2.7492-10.4607-3.8778-15.4969 1.0284-1.857 1.8091-4.3863.2354-6.5894-.5573-6.2663-2.2545-11.2846-7.1419-18.3858-8.5354-.406-.0686-.4733-.1252-.4733-.1252m61.3655-44.108v-18.4021c.0908 9.9874-4.7284 19.3341-4.9466 30.6763 4.79-3.7358 3.8008-7.9106 4.9466-12.2742m-41.1818 15.266c6.2651-1.8214 12.7712-2.8572 18.5594-6.2706l-21.875 5.9516.267.9905c.797-.1537 1.5942-.3075 3.0486-.6715m26.1761 1.1477c1.2756-.2169 2.9115-.1612 3.006-1.8904.0834-1.5256-1.2478-2.2603-2.5573-2.6184-2.3013-.6291-4.1382-.1286-5.0437 2.1944 1.0064 1.6935 2.4954 1.9508 4.595 2.3144zM252.4152 416.877c-.1381 9.6182-3.8787 13.7495-11.0198 12.6676-4.5518-.6895-7.6051-3.3676-7.6512-7.859-.2015-19.6507-.149-39.3058.0405-58.9571.0369-3.827 2.3323-6.7596 6.423-7.1284 13.1235-1.1832 26.4023-2.0111 39.1563 1.743 16.1615 4.757 20.3271 24.888 7.8127 36.3872-2.7802 2.5546-2.6646 4.2024-.7265 7.0365 3.5729 5.2249 6.7202 10.6794 7.192 17.3062.4027 5.6562-2.6412 10.529-7.8266 11.739-5.127 1.1965-9.843-1.2849-11.7526-6.7875-2.0234-5.831-4.4783-11.4576-6.863-17.134-2.4862-5.918-7.0566-4.3696-11.417-3.6617-4.4667.725-3.1072 4.4213-3.326 7.1822-.1839 2.3179-.0415 4.6615-.0418 7.466m19.4484-32.7137c4.3635-11.5598-.5924-20.4735-11.5876-20.8414-5.1009-.1706-7.5074 1.7133-7.7493 6.9082-.294 6.3138-.0406 12.6515-.1282 18.9774-.0444 3.2023 1.6712 3.988 4.46 3.7649 6.1344-.4907 11.2728-2.7266 15.0051-8.8091zm155.8512 48.6562c1.4053.291 2.3672.5748 3.3486.7492 8.0871 1.4368 14.72 5.1457 17.0125 13.437 2.5543 9.2383 1.0583 17.9213-6.6703 24.5063-2.4836 2.1161-1.8602 3.7216-.3388 5.9041 3.9287 5.6362 7.4038 11.4826 7.4517 18.7008.0383 5.772-2.9862 9.738-8.3352 10.751-4.9768.9425-9.2685-1.5876-11.1418-6.9755-2.1349-6.1408-4.3123-12.2396-7.5784-17.8945-2.9804-5.1604-7.7764-2.7391-11.73-2.4298-3.5815.2803-2.2386 3.869-2.3445 6.1392-.1861 3.9882.0591 7.9959-.106 11.9858-.2206 5.3341-4.2115 9.3179-9.145 9.3909-5.3014.0784-9.4643-3.8768-9.49-9.4783-.0866-18.8166-.0917-37.634.0138-56.4504.0337-5.9969 3.1498-8.7702 10.1788-8.9992 9.4824-.309 18.9756-.3048 28.8746.6634m-7.5258 35.0481c1.2415-.8273 2.602-1.5214 3.7035-2.5055 4.5458-4.0614 6.0975-11.7742 3.6206-17.4688-2.167-4.9823-8.073-8.0915-14.006-7.4962-3.451.3462-5.8348 2.0277-5.925 5.5333-.2043 7.9318-.0642 15.8725-.0642 24.0122 4.4383.3723 8.3044-.0064 12.671-2.075zm-230.616-47.2663c15.1323 3.486 19.2075-5.915 17.707-16.8237-.4257-3.095-2.3141-4.6635-5.4704-4.6844-1.1647-.0077-2.3338-.044-3.4923-.1564-2.8204-.2738-5.493-.9515-5.4614-4.5018.0303-3.4063 2.7818-3.7377 5.3036-4.047 6.4733-.794 12.9862-.6485 19.448-.1357 5.4537.4327 8.5655 4.133 8.7169 9.7128.1354 4.9934.0533 9.9935.021 14.9904-.0234 3.6372-1.6122 6.597-4.788 8.2234-16.9316 8.6713-34.2836 11.2217-51.4218 1.1284-21.0824-12.4161-22.5055-46.0549-2.845-60.6853 15.4141-11.4704 31.9961-11.5919 49.171-4.511.7637.3149 1.488.7545 2.1774 1.2156 2.4134 1.6139 3.6675 3.8752 3.3139 6.7885-.2803 2.3086-1.4762 4.0788-3.8507 4.7344-2.9.8006-5.2855-.2267-7.122-2.4293-3.1498-3.778-7.0493-5.978-12.0085-6.2136-10.2529-.4871-17.8965 4.1647-21.9854 13.8885-3.939 9.3675-4.5822 18.9821-1.0947 28.7042 2.4178 6.7402 6.5047 11.939 13.6813 14.802zm292.5316-12.6124c-.0191 4.1609.1386 7.8361-.103 11.485-.2927 4.4182-1.9429 8.285-6.5975 9.6168-4.7162 1.3494-8.8602.2603-11.922-3.9536-9.0042-12.392-18.0406-24.7606-27.1285-37.0911-.9561-1.2973-1.623-2.942-3.3789-3.6991-1.607 1.661-1.0079 3.7449-1.0202 5.6292-.0641 9.8269-.0028 19.6545-.0566 29.4815-.0118 2.1557-.278 4.3135-.4928 6.4637-.2536 2.5388-1.7108 4.0019-4.2535 3.9653-2.6517-.0382-4.5179-1.3438-4.6063-4.2032-.1794-5.8083-.3717-11.6225-.2995-17.4311.1777-14.3083-.5855-28.6174.2066-42.9284.2611-4.7175 2.1507-8.0245 6.613-9.5022 4.9-1.6228 8.753.1167 11.7327 4.215 9.202 12.6563 18.4364 25.2889 27.674 37.9193.9633 1.3172 2.0306 2.5584 3.5596 4.4736 1.016-8.139.5114-15.5388.6052-22.911.0849-6.6615.0511-13.3243.095-19.9863.0168-2.5757 1.3394-4.0804 3.9198-4.2486 2.4138-.1573 4.3517.7147 4.8206 3.3107.3814 2.1112.614 4.2794.6212 6.4233.0476 14.1578.0165 28.3158.0111 42.9712zm-261.543 49.5467c5.8376 1.5706 11.339 2.894 16.7437 4.5352 7.9482 2.4136 14.2474 6.9332 15.8438 15.5814 1.884 10.2061-1.8971 18.6524-10.5609 24.0567-14.0888 8.7883-28.7386 8.01-43.175.546-3.4108-1.7634-6.2315-4.5372-7.8184-8.1675-1.4942-3.4182-1.9623-7.0667 1.7623-9.3018 3.6785-2.2072 6.5198.0636 8.3338 3.094 4.8862 8.163 11.945 11.6822 21.3378 10.8255 3.071-.2801 5.8312-1.2925 8.272-3.1545 6.087-4.6434 5.3804-12.0932-1.672-15.028-3.6467-1.5175-7.656-2.162-11.4995-3.2085-3.6831-1.0026-7.445-1.787-11.029-3.0682-8.7541-3.1298-13.542-9.6366-14.0594-18.7675-.4879-8.6107 5.8583-17.7916 14.358-21.057 12.664-4.8653 25.1312-3.5834 37.2484 2.188 2.6805 1.2766 3.9632 3.3795 3.786 6.4141-.1399 2.3976-1.0613 4.3033-3.3886 5.0108-2.9032.8825-5.6781.4372-7.68-2.1017-3.434-4.355-7.9264-6.5267-13.4076-6.5357-6.0037-.0098-10.7213 3.1491-11.6063 7.5568-.9421 4.692 1.3395 7.7442 8.211 10.582zm140.7926-35.4753c-.2007-19.2225-.435-38.0456-.2372-56.864.072-6.8583 3.0547-9.7434 9.9663-9.9403 12.155-.3461 24.3263-.3117 36.4864-.1339 2.6133.0382 5.9209-.3566 7.5132 2.828 1.4352 2.8698 1.8206 5.8718-.5959 8.3672-2.3954 2.4737-5.5735 2.7031-8.253.8323-5.608-3.9156-11.8344-4.0466-18.2127-3.7804-5.8441.244-7.6222 1.8113-7.581 7.5078.121 16.7416-2.2814 13.5727 13.3942 13.9064 3.165.0674 6.3347-.0256 9.4973.0904 2.8603.105 4.8276 1.4397 4.8573 4.5449.0297 3.1157-1.9855 4.5666-4.7848 4.65-5.994.1784-11.9982.229-17.9926.0913-3.5766-.082-5.2547 1.1599-5.0469 4.9165.285 5.1509.2468 10.3189.4766 15.4737.172 3.859 2.2433 6.3056 6.1337 6.6577 7.0982.6424 14.272 1.8172 20.7991-2.6295 2.789-1.9 5.8338-2.5005 8.7334.0501 2.3706 2.0853 2.2694 4.8388 1.5207 7.4016-1.0858 3.7167-4.286 4.1967-7.6468 4.1887-12.3316-.0294-24.6633.0038-36.9949-.0283-5.5988-.0146-10.2234-1.6242-12.0324-8.1302zm-61.4741-51.923c.0752-2.3096-.005-4.1608.2467-5.9658.8538-6.124 2.7612-8.4398 8.904-8.6518 12.813-.4423 25.6457-.4067 38.4697-.377 3.2476.0076 6.3747.9473 7.369 4.7532.6903 2.6424.071 5.0491-1.9649 6.8307-2.863 2.5055-5.9875 1.793-8.7617-.1014-5.996-4.0944-12.6852-3.5481-19.321-3.0711-3.5745.257-5.627 2.1405-5.5252 6.2292.4445 17.8653-2.7079 14.6043 14.4692 14.982 2.8316.0624 5.6761-.0665 8.493.1615 2.7445.2222 4.8443 1.5538 4.8815 4.6407.0384 3.1833-2.1803 4.4463-4.9014 4.5307-5.994.1857-12.001.2547-17.9934.0699-3.6278-.112-5.168 1.0814-4.965 4.8657.2499 4.6534-.0093 9.3317.101 13.9958.1316 5.563 2.1855 8.045 7.7347 8.442 6.943.4968 13.983 1.1363 20.2535-3.2643 2.6828-1.8828 5.7464-1.9357 8.3205.3624 2.2923 2.0465 1.9786 4.9296 1.3512 7.4976-.8134 3.33-3.7261 4.0935-6.6786 4.1018-13.1655.037-26.334.1133-39.4957-.132-7.4175-.1382-10.9858-4.2113-11.0059-11.9225-.0412-15.8325.0052-31.6652.0188-47.9773z"/>
  <path d="M328.2552 498.073c-.4703 1.8386-.7984 3.3033-1.2717 4.7194-.949 2.8395-2.7556 4.7061-5.9501 3.9107-3.1283-.7789-4.2166-3.2895-3.6094-6.1883.8499-4.057 2.0662-8.0425 3.2366-12.026 5.2255-17.7835 12.5432-34.697 21.5025-50.8962 4.0042-7.24 13.4724-7.6915 17.296-.596 10.0325 18.6175 18.6648 37.8652 24.0775 58.3993 1.643 6.2326.4497 9.3664-3.6204 10.9564-5.148 2.011-10.758.2293-13.2465-4.7519-1.7674-3.538-2.9117-7.41-4.1017-11.2059-.8563-2.7314-2.1002-3.9732-5.2985-3.8982-7.1333.1674-14.2758.902-21.425.1087-2.8503-.3163-4.77.9384-5.4907 3.875-.5936 2.4188-1.3421 4.7997-2.0986 7.593m28.491-25.3693c-3.0292-7.464-5.8353-15.0381-10.8232-22.7375-4.2106 8.5106-7.7176 16.296-10.307 24.484-.6664 2.1074.3493 3.181 2.4845 3.1908 5.4828.0252 10.9657.0133 16.4486.0222 3.2788.0053 3.5638-1.7131 2.197-4.9595zm-46.9753-30.476c-7.0052-1.7766-9.0675-.5953-9.8222 6.0006-1.196 10.4531-.3007 20.9674-.5067 31.453-.1212 6.1621.0654 12.3315-.117 18.4908-.1416 4.7741-3.8118 8.4207-8.504 8.8856-4.351.4311-8.775-2.384-9.8988-6.7575-.6534-2.5427-.7911-5.2683-.8136-7.9145-.1202-14.1603-.0731-28.322-.2014-42.4822-.0763-8.4171-3.8077-10.6069-11.5283-6.9807-1.649.7745-3.2644 1.8149-5.0078 2.1538-3.6115.7022-6.2676-.803-7.203-4.4697-.8924-3.4986.269-6.3103 3.715-7.7377 1.3474-.5582 2.9209-.7916 4.3925-.7956 16.9748-.0464 33.9498-.0304 50.9247.0064 1.322.0028 2.6752.1541 3.9592.4636 3.6748.8859 5.2866 3.347 4.728 7.0291-.5848 3.856-2.8553 5.8565-6.8986 5.655-2.6462-.132-4.5606-1.9314-7.218-3zM241.0486 215.024c10.5043 6.8032 20.788 13.8919 31.5008 20.2587 8.4618 5.029 13.3182 10.4539 13.3907 21.689.1118 17.3207-.099 34.604-.7542 51.8993-.0298.7876-.0902 1.7028-1.8907 1.9729-.507-4.3113-1.1437-8.6131-1.4976-12.9381-1.2407-15.1646-4.665-29.8973-8.7963-44.4762-1.8128-6.3975-7.0282-10.4992-11.5499-14.778-8.704-8.2365-17.9285-15.9228-26.9354-23.8394-.7308-.6423-1.7088-1.1063-1.7178-2.663 3.0423-.6346 4.8042 2.4644 7.8042 2.7346.3435.058.4107.1145.4462.1403z"/>
</svg>
